#!OML:ASF E:\emotionWalksFemale\Project 1\Capture day 1\Session 1\Female1.ASF
:FULLY-SPECIFIED
:DEGREES
430
root 5.31055 15.4995 20.9349 164.163 86.0843 -555.91
lowerback 8.09447 1.21629 -1.11106
upperback -5.27102 1.5495 0.00820192
thorax -10.2139 0.847318 0.36878
lowerneck -6.9722 -3.28384 -7.83284
upperneck 9.0107 -4.10861 5.71976
head 4.11205 -1.98954 2.79317
rclavicle 1.6201e-014 6.65929e-015
rhumerus -46.7816 11.4213 -90.1962
rradius 26.0339
rwrist 35.276
rhand 0.298201 -53.4028
rfingers 7.12502
rthumb 25.876 638.338
lclavicle 1.6201e-014 6.65929e-015
lhumerus -44.0458 2.07668 83.9468
lradius 26.9387
lwrist -26.8411
lhand 6.12186 -37.4013
lfingers 7.12502
lthumb 31.4394 -10.0845
rfemur -0.136727 19.8775 25.7602
rtibia 16.0929
rfoot -17.1985 -32.9471
rtoes -17.6242
lfemur -5.88331 -23.7073 -24.9127
ltibia 22.5353
lfoot -26.05 23.4018
ltoes -35.6843
431
root 5.30465 15.5071 20.9336 162.297 86.6999 -557.608
lowerback 8.03021 1.29786 -1.00133
upperback -5.28881 1.67991 0.0682145
thorax -10.1961 0.905458 0.350616
lowerneck -6.94918 -3.14278 -7.78833
upperneck 9.37445 -3.93168 5.72241
head 4.20573 -1.90042 2.79825
rclavicle 1.16662e-014 6.95746e-016
rhumerus -46.5554 11.6944 -90.31
rradius 26.1256
rwrist 34.5275
rhand 0.452497 -53.238
rfingers 7.12502
rthumb 26.0237 638.524
lclavicle 1.16662e-014 6.95746e-016
lhumerus -43.5617 1.55417 84.276
lradius 26.8962
lwrist -26.7994
lhand 6.27925 -36.5793
lfingers 7.12502
lthumb 31.5894 -9.2919
rfemur -0.443781 20.1679 25.9023
rtibia 17.0703
rfoot -18.0339 -32.6616
rtoes -17.1942
lfemur -5.20905 -24.1674 -24.966
ltibia 21.9847
lfoot -26.9773 23.2775
ltoes -31.9578
432
root 5.2989 15.5039 20.9326 159.465 87.3358 -560.273
lowerback 8.00548 1.38278 -0.907748
upperback -5.33232 1.8154 0.154575
thorax -10.2319 0.968615 0.367524
lowerneck -6.72434 -2.97354 -7.77627
upperneck 9.52529 -3.71873 5.69443
head 4.1986 -1.7989 2.80394
rclavicle 2.00027e-015 7.05686e-015
rhumerus -46.4413 12.0781 -90.4746
rradius 26.2869
rwrist 33.2888
rhand 0.418939 -53.2162
rfingers 7.12502
rthumb 25.9916 638.541
lclavicle 2.00027e-015 7.05686e-015
lhumerus -43.1356 1.34765 84.3865
lradius 26.7599
lwrist -27.0377
lhand 6.59715 -36.6321
lfingers 7.12502
lthumb 31.8922 -9.40458
rfemur -0.543077 20.3652 26.0512
rtibia 17.6205
rfoot -18.4905 -32.3275
rtoes -17.4394
lfemur -4.65882 -24.4883 -25.055
ltibia 21.6014
lfoot -27.1751 24.1285
ltoes -31.9265
433
root 5.29028 15.4152 20.9424 154.994 87.8319 -564.477
lowerback 8.04449 1.37171 -0.894802
upperback -5.32346 1.81049 0.25606
thorax -10.2485 0.969249 0.468865
lowerneck -6.64911 -2.71781 -7.66679
upperneck 9.71602 -3.37151 5.49074
head 4.21498 -1.63525 2.74554
rclavicle 8.74653e-015 1.98785e-015
rhumerus -46.4453 12.8507 -90.8929
rradius 26.5281
rwrist 31.7356
rhand 0.261059 -53.3848
rfingers 7.12502
rthumb 25.8404 638.351
lclavicle 8.74653e-015 1.98785e-015
lhumerus -42.7649 1.50931 84.3154
lradius 26.6876
lwrist -27.2046
lhand 7.35484 -36.7076
lfingers 7.12502
lthumb 32.6134 -9.62666
rfemur -0.365554 20.6954 26.2655
rtibia 17.7326
rfoot -18.354 -32.3608
rtoes -18.312
lfemur -4.97721 -19.1375 -25.6814
ltibia 21.3741
lfoot -2.16544 32.5674
ltoes -64.1952
434
root 5.29173 15.4432 20.95 150.402 88.2187 -568.793
lowerback 8.00967 1.35922 -0.927259
upperback -5.26862 1.79066 0.284011
thorax -10.1685 0.962198 0.522157
lowerneck -6.56306 -2.5214 -7.45862
upperneck 9.81906 -3.12441 5.38745
head 4.21027 -1.51194 2.69576
rclavicle 3.95085e-015 -2.5842e-015
rhumerus -46.2757 12.9829 -91.0625
rradius 26.7145
rwrist 31.1733
rhand 0.714756 -53.5029
rfingers 7.12502
rthumb 26.2748 638.297
lclavicle 3.95085e-015 -2.5842e-015
lhumerus -42.407 1.23513 84.297
lradius 26.6557
lwrist -27.0109
lhand 7.48933 -36.2017
lfingers 7.12502
lthumb 32.7413 -9.14727
rfemur -0.0342578 21.1516 26.4651
rtibia 17.7376
rfoot -18.5499 -32.5112
rtoes -18.2997
lfemur -4.27863 -19.9962 -25.6212
ltibia 21.2687
lfoot -9.43245 32.3306
ltoes -61.2619
435
root 5.28315 15.5008 20.9335 145.416 88.5337 -573.874
lowerback 7.85355 1.34932 -0.515888
upperback -5.36456 1.81619 0.103471
thorax -10.1615 0.940027 0.0963771
lowerneck -6.31818 -2.41475 -7.2797
upperneck 9.76382 -3.03937 5.63888
head 4.14713 -1.45232 2.75193
rclavicle 7.71533e-015 -1.09332e-015
rhumerus -46.076 12.7338 -91.2521
rradius 26.8891
rwrist 30.8302
rhand 1.15663 -53.7475
rfingers 7.12502
rthumb 26.6978 638.116
lclavicle 7.71533e-015 -1.09332e-015
lhumerus -42.0663 0.88812 84.0626
lradius 26.5863
lwrist -26.9211
lhand 7.71307 -36.0957
lfingers 7.12502
lthumb 32.9542 -9.08583
rfemur -0.202047 21.0233 26.2681
rtibia 17.5953
rfoot -18.5949 -32.0249
rtoes -18.704
lfemur -3.68894 -25.5839 -25.1866
ltibia 21.2854
lfoot -30.306 22.9488
ltoes -18.188
436
root 5.27084 15.4963 20.9288 139.411 88.7818 -579.892
lowerback 7.83385 1.2649 -0.322486
upperback -5.47384 1.73146 0.118918
thorax -10.2645 0.887435 0.0169676
lowerneck -6.14973 -2.25936 -7.37531
upperneck 9.84594 -2.85006 5.82339
head 4.13489 -1.35424 2.83768
rclavicle 2.88238e-015 -1.98785e-016
rhumerus -46.0616 13.0899 -91.4739
rradius 27.1689
rwrist 30.028
rhand 1.39229 -53.8689
rfingers 7.12502
rthumb 26.9233 638.029
lclavicle 2.88238e-015 -1.98785e-016
lhumerus -41.9363 1.38228 83.7009
lradius 26.6145
lwrist -27.0255
lhand 8.46764 -36.3219
lfingers 7.12502
lthumb 33.6715 -9.46583
rfemur 0.125316 20.9334 26.2119
rtibia 16.6457
rfoot -17.8211 -31.6436
rtoes -20.0673
lfemur -3.85037 -25.6622 -25.2017
ltibia 21.666
lfoot -30.5432 23.2453
ltoes -18.4833
437
root 5.26335 15.4874 20.9309 128.3 88.9906 -590.831
lowerback 7.91532 1.13701 -0.439306
upperback -5.48653 1.5634 0.321624
thorax -10.336 0.823131 0.325422
lowerneck -6.27129 -2.04593 -7.59766
upperneck 10.1667 -2.53329 5.79182
head 4.23386 -1.20621 2.88312
rclavicle -3.85145e-015 -5.96354e-016
rhumerus -45.9669 13.6799 -91.4915
rradius 27.4325
rwrist 29.2
rhand 1.80154 -53.9114
rfingers 7.12502
rthumb 27.3148 638.047
lclavicle -3.85145e-015 -5.96354e-016
lhumerus -41.8711 1.96345 83.6147
lradius 26.6496
lwrist -26.6418
lhand 8.66475 -35.7643
lfingers 7.12502
lthumb 33.8588 -8.94932
rfemur 0.618659 20.9155 26.2513
rtibia 15.9376
rfoot -17.2945 -31.4641
rtoes -20.9798
lfemur -3.76387 -25.7047 -25.2986
ltibia 21.9533
lfoot -30.8811 23.2383
ltoes -18.1335
438
root 5.25754 15.493 20.9362 112.686 89.1992 -606.172
lowerback 8.06022 1.07962 -0.44582
upperback -5.42592 1.4889 0.395796
thorax -10.3568 0.789377 0.41901
lowerneck -6.37611 -1.9015 -7.53672
upperneck 10.3874 -2.33697 5.7528
head 4.30388 -1.10763 2.87296
rclavicle 1.83876e-015 -4.37326e-015
rhumerus -45.6905 13.6819 -91.4159
rradius 27.6016
rwrist 28.6847
rhand 1.82542 -53.7495
rfingers 7.12502
rthumb 27.3376 638.213
lclavicle 1.83876e-015 -4.37326e-015
lhumerus -41.5808 2.09833 83.4814
lradius 26.3834
lwrist -26.1961
lhand 8.3049 -35.1384
lfingers 7.12502
lthumb 33.5169 -8.24868
rfemur 0.957699 20.9104 26.4233
rtibia 15.9313
rfoot -17.7307 -31.1807
rtoes -20.3002
lfemur -3.44659 -25.4316 -25.3288
ltibia 21.9218
lfoot -30.8091 23.2355
ltoes -19.2185
439
root 5.24693 15.4871 20.9419 90.6578 89.3876 -628.006
lowerback 8.21769 1.08205 -0.310054
upperback -5.44179 1.50953 0.403058
thorax -10.4656 0.789445 0.343747
lowerneck -6.23994 -1.83312 -7.34702
upperneck 10.4475 -2.26197 5.64919
head 4.29093 -1.07002 2.81512
rclavicle -7.7526e-015 -3.97569e-016
rhumerus -45.4725 13.3057 -91.2898
rradius 27.6493
rwrist 28.2892
rhand 0.878084 -52.7654
rfingers 7.12502
rthumb 26.4312 639.057
lclavicle -7.7526e-015 -3.97569e-016
lhumerus -41.4234 2.10517 83.2733
lradius 26.1724
lwrist -26.0754
lhand 7.96446 -34.9981
lfingers 7.12502
lthumb 33.1932 -8.03885
rfemur 1.12981 21.2123 26.6213
rtibia 15.7702
rfoot -17.2387 -31.4238
rtoes -20.8133
lfemur -3.3377 -25.2194 -25.2253
ltibia 22.0416
lfoot -30.9991 23.0461
ltoes -18.9683
440
root 5.23946 15.4994 20.9483 62.4471 89.3721 -656.09
lowerback 8.31716 1.06911 -0.330841
upperback -5.50556 1.49709 0.465842
thorax -10.5988 0.78816 0.42215
lowerneck -6.13903 -1.73936 -7.2611
upperneck 10.6386 -2.13556 5.49878
head 4.32152 -1.01301 2.76315
rclavicle 1.47101e-014 6.16232e-015
rhumerus -45.3995 13.2037 -91.2551
rradius 27.6382
rwrist 27.4706
rhand 0.743972 -53.8033
rfingers 7.12502
rthumb 26.3028 638
lclavicle 1.47101e-014 6.16232e-015
lhumerus -41.5688 2.07488 83.2144
lradius 26.2973
lwrist -25.833
lhand 7.8385 -34.6424
lfingers 7.12502
lthumb 33.0735 -7.65772
rfemur 1.30481 21.2014 26.72
rtibia 15.7247
rfoot -17.8468 -30.8964
rtoes -19.2592
lfemur -3.19028 -25.3995 -25.2352
ltibia 22.0318
lfoot -31.0607 23.3564
ltoes -19.032
441
root 5.2321 15.4852 20.9498 45.5487 89.1953 -672.887
lowerback 8.34672 1.02497 -0.419696
upperback -5.53166 1.43479 0.548275
thorax -10.6498 0.768617 0.570582
lowerneck -6.12821 -1.59423 -7.38247
upperneck 10.8585 -1.93062 5.50972
head 4.37457 -0.915907 2.79973
rclavicle -2.23633e-015 0
rhumerus -45.1926 13.1248 -91.0409
rradius 27.7422
rwrist 27.2665
rhand 0.990767 -54.1169
rfingers 7.12502
rthumb 26.539 637.722
lclavicle -2.23633e-015 0
lhumerus -41.7062 2.26124 83.1294
lradius 26.434
lwrist -25.6017
lhand 7.69819 -34.0742
lfingers 7.12502
lthumb 32.94 -7.0614
rfemur 1.31024 21.2703 26.6929
rtibia 15.5582
rfoot -16.5906 -31.1298
rtoes -21.8108
lfemur -3.12741 -25.7393 -25.3609
ltibia 22.1557
lfoot -31.0759 23.8508
ltoes -19.0987
442
root 5.22598 15.4891 20.9518 34.3345 89.0604 -684.006
lowerback 8.32619 0.95926 -0.443033
upperback -5.51279 1.3538 0.6609
thorax -10.6187 0.736252 0.719335
lowerneck -6.05295 -1.47342 -7.60033
upperneck 10.8831 -1.76008 5.60538
head 4.36072 -0.836183 2.87568
rclavicle 1.54058e-014 3.57812e-015
rhumerus -44.817 12.8539 -90.6025
rradius 27.7424
rwrist 27.2344
rhand 0.886209 -53.7694
rfingers 7.12502
rthumb 26.4389 638.055
lclavicle 1.54058e-014 3.57812e-015
lhumerus -41.7396 2.83319 82.8706
lradius 26.3832
lwrist -25.7764
lhand 7.08728 -33.8309
lfingers 7.12502
lthumb 32.3588 -6.69753
rfemur 1.34266 21.2142 26.7597
rtibia 15.7163
rfoot -16.7676 -30.876
rtoes -22.0301
lfemur -2.95013 -25.7523 -25.3507
ltibia 21.997
lfoot -30.9534 23.962
ltoes -18.2518
443
root 5.22175 15.4789 20.9534 24.9455 88.964 -693.26
lowerback 8.33121 0.884135 -0.350558
upperback -5.49168 1.27123 0.735074
thorax -10.5963 0.692806 0.761519
lowerneck -5.90951 -1.39471 -7.59138
upperneck 10.7978 -1.65628 5.54812
head 4.30313 -0.789339 2.86221
rclavicle 9.44227e-016 -3.77691e-015
rhumerus -44.5401 12.5206 -90.257
rradius 27.8212
rwrist 27.1813
rhand 0.946254 -53.6122
rfingers 7.12502
rthumb 26.4964 638.22
lclavicle 9.44227e-016 -3.77691e-015
lhumerus -41.8085 3.49058 82.4543
lradius 26.2789
lwrist -26.3515
lhand 6.4425 -33.9405
lfingers 7.12502
lthumb 31.7449 -6.6837
rfemur 1.37079 21.4109 26.8903
rtibia 15.7893
rfoot -16.4705 -31.0782
rtoes -22.8014
lfemur -2.81726 -25.353 -25.2778
ltibia 21.9454
lfoot -30.5126 24.0716
ltoes -19.2899
